<svg width="380" height="260" viewBox="0 0 380 260" fill="none" xmlns="http://www.w3.org/2000/svg">
<rect y="140" width="10.1333" height="20" rx="5.06667" fill="url(#paint0_linear_2004_2)"/>
<rect x="369.867" y="140" width="10.1333" height="20" rx="5.06667" fill="url(#paint1_linear_2004_2)"/>
<rect x="344.533" y="120" width="10.1333" height="60" rx="5.06667" fill="url(#paint2_linear_2004_2)"/>
<rect x="25.3333" y="120" width="10.1333" height="60" rx="5.06667" fill="url(#paint3_linear_2004_2)"/>
<rect x="96.2667" y="120" width="10.1333" height="80" rx="5.06667" fill="url(#paint4_linear_2004_2)"/>
<rect x="121.6" y="110" width="10.1333" height="80" rx="5.06667" fill="url(#paint5_linear_2004_2)"/>
<rect x="146.933" y="90" width="10.1333" height="120" rx="5.06667" fill="url(#paint6_linear_2004_2)"/>
<rect x="319.2" y="100" width="10.1333" height="100" rx="5.06667" fill="url(#paint7_linear_2004_2)"/>
<rect x="217.867" width="10.1333" height="200" rx="5.06667" fill="url(#paint8_linear_2004_2)"/>
<rect x="293.867" y="80" width="10.1333" height="140" rx="5.06667" fill="url(#paint9_linear_2004_2)"/>
<rect x="243.2" y="60" width="10.1333" height="160" rx="5.06667" fill="url(#paint10_linear_2004_2)"/>
<rect x="268.533" y="40" width="10.1333" height="220" rx="5.06667" fill="url(#paint11_linear_2004_2)"/>
<path fill-rule="evenodd" clip-rule="evenodd" d="M65.8667 70C57.4719 70 50.6667 76.7157 50.6667 85V215C50.6667 223.284 57.4719 230 65.8667 230C74.2614 230 81.0667 223.284 81.0667 215V85C81.0667 76.7157 74.2614 70 65.8667 70ZM65.8667 80C63.0684 80 60.8 82.2386 60.8 85V215C60.8 217.761 63.0684 220 65.8667 220C68.6649 220 70.9333 217.761 70.9333 215V85C70.9333 82.2386 68.6649 80 65.8667 80Z" fill="url(#paint12_linear_2004_2)"/>
<path fill-rule="evenodd" clip-rule="evenodd" d="M187.5 20C178.94 20 172 27.3262 172 36.3636V243.636C172 252.674 178.94 260 187.5 260C196.06 260 203 252.674 203 243.636V36.3636C203 27.3262 196.06 20 187.5 20ZM187.5 30.9091C184.647 30.9091 182.333 33.3512 182.333 36.3636V243.636C182.333 246.649 184.647 249.091 187.5 249.091C190.353 249.091 192.667 246.649 192.667 243.636V36.3636C192.667 33.3512 190.353 30.9091 187.5 30.9091Z" fill="url(#paint13_linear_2004_2)"/>
<defs>
<linearGradient id="paint0_linear_2004_2" x1="5.06667" y1="140" x2="5.06667" y2="160" gradientUnits="userSpaceOnUse">
<stop stop-color="#077085"/>
<stop offset="1" stop-color="#122545"/>
</linearGradient>
<linearGradient id="paint1_linear_2004_2" x1="374.933" y1="140" x2="374.933" y2="160" gradientUnits="userSpaceOnUse">
<stop stop-color="#077085"/>
<stop offset="1" stop-color="#122545"/>
</linearGradient>
<linearGradient id="paint2_linear_2004_2" x1="349.6" y1="120" x2="349.6" y2="180" gradientUnits="userSpaceOnUse">
<stop stop-color="#077085"/>
<stop offset="1" stop-color="#122545"/>
</linearGradient>
<linearGradient id="paint3_linear_2004_2" x1="30.4" y1="120" x2="30.4" y2="180" gradientUnits="userSpaceOnUse">
<stop stop-color="#077085"/>
<stop offset="1" stop-color="#122545"/>
</linearGradient>
<linearGradient id="paint4_linear_2004_2" x1="101.333" y1="120" x2="101.333" y2="200" gradientUnits="userSpaceOnUse">
<stop stop-color="#077085"/>
<stop offset="1" stop-color="#122545"/>
</linearGradient>
<linearGradient id="paint5_linear_2004_2" x1="126.667" y1="110" x2="126.667" y2="190" gradientUnits="userSpaceOnUse">
<stop stop-color="#077085"/>
<stop offset="1" stop-color="#122545"/>
</linearGradient>
<linearGradient id="paint6_linear_2004_2" x1="152" y1="90" x2="152" y2="210" gradientUnits="userSpaceOnUse">
<stop stop-color="#077085"/>
<stop offset="1" stop-color="#122545"/>
</linearGradient>
<linearGradient id="paint7_linear_2004_2" x1="324.267" y1="100" x2="324.267" y2="200" gradientUnits="userSpaceOnUse">
<stop stop-color="#077085"/>
<stop offset="1" stop-color="#122545"/>
</linearGradient>
<linearGradient id="paint8_linear_2004_2" x1="222.933" y1="0" x2="222.933" y2="200" gradientUnits="userSpaceOnUse">
<stop stop-color="#077085"/>
<stop offset="1" stop-color="#122545"/>
</linearGradient>
<linearGradient id="paint9_linear_2004_2" x1="298.933" y1="80" x2="298.933" y2="220" gradientUnits="userSpaceOnUse">
<stop stop-color="#077085"/>
<stop offset="1" stop-color="#122545"/>
</linearGradient>
<linearGradient id="paint10_linear_2004_2" x1="248.267" y1="60" x2="248.267" y2="220" gradientUnits="userSpaceOnUse">
<stop stop-color="#077085"/>
<stop offset="1" stop-color="#122545"/>
</linearGradient>
<linearGradient id="paint11_linear_2004_2" x1="273.6" y1="40" x2="273.6" y2="260" gradientUnits="userSpaceOnUse">
<stop stop-color="#077085"/>
<stop offset="1" stop-color="#122545"/>
</linearGradient>
<linearGradient id="paint12_linear_2004_2" x1="65.8667" y1="70" x2="65.8667" y2="230" gradientUnits="userSpaceOnUse">
<stop stop-color="#077085"/>
<stop offset="1" stop-color="#122545"/>
</linearGradient>
<linearGradient id="paint13_linear_2004_2" x1="187.5" y1="20" x2="187.5" y2="260" gradientUnits="userSpaceOnUse">
<stop stop-color="#077085"/>
<stop offset="1" stop-color="#122545"/>
</linearGradient>
</defs>
</svg>
